<svg xmlns="http://www.w3.org/2000/svg" viewBox="0 0 24 24" width="24" height="24" color="#000000" fill="none">
    <path d="M16 1.25C16.9216 1.25 17.6887 1.24857 18.2949 1.33008C18.9225 1.41451 19.489 1.60031 19.9443 2.05566C20.3997 2.51102 20.5855 3.07747 20.6699 3.70508C20.7514 4.3113 20.75 5.07839 20.75 6V18C20.75 18.4142 20.4142 18.75 20 18.75H19.7959C19.7391 18.8106 19.6726 18.8856 19.6074 18.9756C19.4158 19.2403 19.2501 19.5893 19.25 20C19.25 20.4107 19.4158 20.7597 19.6074 21.0244C19.6725 21.1143 19.7391 21.1894 19.7959 21.25H20C20.4142 21.25 20.75 21.5858 20.75 22C20.75 22.4142 20.4142 22.75 20 22.75H6C4.48122 22.75 3.25 21.5188 3.25 20V8C3.25 6.60709 3.24812 5.4869 3.36621 4.6084C3.48723 3.70829 3.74672 2.95055 4.34863 2.34863C4.95055 1.74672 5.70829 1.48723 6.6084 1.36621C7.4869 1.24812 8.60709 1.25 10 1.25H16ZM6 18.75C5.30965 18.75 4.75 19.3096 4.75 20C4.75 20.6904 5.30965 21.25 6 21.25H18.0186C17.8641 20.8985 17.75 20.4789 17.75 20C17.75 19.5208 17.8649 19.1016 18.0195 18.75H6ZM10 2.75C8.56485 2.75 7.5639 2.75202 6.80859 2.85352C6.07482 2.95217 5.68594 3.13242 5.40918 3.40918C5.13242 3.68594 4.95217 4.07482 4.85352 4.80859C4.75202 5.5639 4.75 6.56485 4.75 8V17.5527C5.12532 17.3606 5.54942 17.25 6 17.25H19.25V6C19.25 5.03599 19.2485 4.38831 19.1836 3.90527C19.1216 3.44388 19.0141 3.24652 18.8838 3.11621C18.7535 2.9859 18.5561 2.87845 18.0947 2.81641C17.6117 2.75146 16.964 2.75 16 2.75H10ZM14 5.75C15.6313 5.75 16.7499 7.10509 16.75 8.63867C16.75 9.81308 16.0358 10.9332 15.3135 11.7881C14.5659 12.6729 13.6793 13.4235 13.0928 13.875C12.4435 14.3747 11.5565 14.3747 10.9072 13.875C10.3207 13.4235 9.4341 12.6729 8.68652 11.7881C7.9642 10.9332 7.25 9.81308 7.25 8.63867C7.2501 7.10509 8.36874 5.75 10 5.75C10.6756 5.75 11.3109 5.95554 12 6.51172C12.6891 5.95554 13.3244 5.75 14 5.75ZM14 7.25C13.6476 7.25 13.2314 7.3381 12.5381 8.05176C12.3969 8.19714 12.2027 8.2793 12 8.2793C11.7973 8.2793 11.6031 8.19714 11.4619 8.05176C10.7686 7.3381 10.3524 7.25 10 7.25C9.3156 7.25 8.75009 7.80991 8.75 8.63867C8.75 9.25147 9.15434 10.0182 9.83203 10.8203C10.4843 11.5923 11.2794 12.2693 11.8213 12.6865C11.9314 12.7713 12.0686 12.7713 12.1787 12.6865C12.7206 12.2693 13.5157 11.5923 14.168 10.8203C14.8457 10.0182 15.25 9.25147 15.25 8.63867C15.2499 7.80991 14.6844 7.25 14 7.25Z" fill="currentColor" />
</svg>