<svg xmlns="http://www.w3.org/2000/svg" viewBox="0 0 24 24" width="24" height="24" color="#000000" fill="none">
    <defs />
    <path fill="currentColor" d="M5.52,8.713 C7.226,7.381 9.429,6.25 12,6.25 C14.571,6.25 16.774,7.381 18.48,8.713 C20.187,10.046 21.449,11.62 22.155,12.609 L22.208,12.684 C22.461,13.036 22.75,13.438 22.75,14 C22.75,14.562 22.461,14.964 22.208,15.316 L22.155,15.391 C21.449,16.38 20.187,17.954 18.48,19.287 C16.774,20.619 14.571,21.75 12,21.75 C9.429,21.75 7.226,20.619 5.52,19.287 C3.813,17.954 2.551,16.38 1.845,15.391 L1.792,15.316 C1.539,14.964 1.25,14.562 1.25,14 C1.25,13.438 1.539,13.036 1.792,12.684 L1.845,12.609 C2.551,11.62 3.813,10.046 5.52,8.713 Z M6.443,9.895 C4.892,11.106 3.727,12.555 3.067,13.481 C2.903,13.71 2.826,13.821 2.779,13.91 C2.75,13.967 2.75,13.982 2.75,13.998 L2.75,14 L2.75,14.002 C2.75,14.018 2.75,14.033 2.779,14.09 C2.826,14.179 2.903,14.29 3.067,14.519 C3.727,15.445 4.892,16.894 6.443,18.105 C7.996,19.317 9.881,20.25 12,20.25 C14.119,20.25 16.004,19.317 17.557,18.105 C19.108,16.894 20.273,15.445 20.933,14.519 C21.097,14.29 21.174,14.179 21.221,14.09 C21.25,14.033 21.25,14.018 21.25,14.002 L21.25,13.998 C21.25,13.982 21.25,13.967 21.221,13.91 C21.174,13.821 21.097,13.71 20.933,13.481 C20.273,12.555 19.108,11.106 17.557,9.895 C16.004,8.683 14.119,7.75 12,7.75 C9.881,7.75 7.996,8.683 6.443,9.895 Z M12,17.75 C9.929,17.75 8.25,16.071 8.25,14 C8.25,11.929 9.929,10.25 12,10.25 C14.071,10.25 15.75,11.929 15.75,14 C15.75,16.071 14.071,17.75 12,17.75 Z M21.441,8.501 L21.433,8.491 C21.426,8.484 21.415,8.472 21.4,8.455 C21.369,8.422 21.322,8.373 21.26,8.309 C21.134,8.18 20.947,7.994 20.705,7.769 C20.218,7.319 19.514,6.717 18.645,6.117 C16.892,4.906 14.543,3.75 12,3.75 C9.457,3.75 7.108,4.906 5.355,6.117 C4.486,6.717 3.782,7.319 3.296,7.769 C3.053,7.994 2.866,8.18 2.74,8.309 C2.678,8.373 2.631,8.422 2.6,8.455 C2.585,8.472 2.574,8.484 2.567,8.491 L2.56,8.499 L2.559,8.5 C2.282,8.808 1.808,8.835 1.5,8.559 C1.191,8.282 1.165,7.808 1.441,7.5 L1.443,7.497 L1.447,7.493 L1.459,7.48 C1.47,7.469 1.484,7.453 1.503,7.432 C1.541,7.392 1.595,7.334 1.666,7.262 C1.807,7.117 2.013,6.912 2.276,6.669 C2.802,6.181 3.562,5.533 4.503,4.883 C6.369,3.594 9.02,2.25 12,2.25 C14.98,2.25 17.631,3.594 19.497,4.883 C20.438,5.533 21.198,6.181 21.724,6.669 C21.987,6.912 22.193,7.117 22.334,7.262 C22.405,7.334 22.459,7.392 22.497,7.432 C22.516,7.453 22.531,7.469 22.541,7.48 L22.553,7.493 L22.557,7.497 L22.558,7.499 C22.558,7.499 22.559,7.5 22,8 L22.559,7.5 C22.835,7.808 22.809,8.282 22.5,8.559 C22.192,8.835 21.718,8.809 21.441,8.501 Z M9.75,14 C9.75,15.243 10.757,16.25 12,16.25 C13.243,16.25 14.25,15.243 14.25,14 C14.25,12.757 13.243,11.75 12,11.75 C10.757,11.75 9.75,12.757 9.75,14 Z M1.511,7.562 C1.581,7.625 1.72,7.749 1.999,7.999 L1.441,7.5 C1.441,7.5 1.442,7.501 1.511,7.562 Z" />
</svg>