<svg xmlns="http://www.w3.org/2000/svg" viewBox="0 0 24 24" width="24" height="24" color="#000000" fill="none">
    <path d="M14.7109 2.25013C16.2724 2.25013 17.3703 2.22221 18.4062 2.99524C19.4327 3.76157 19.6798 4.66971 20.0585 5.94544C20.5461 7.58794 21.0667 9.88206 21.4218 12.9249C21.6254 14.6691 21.7903 16.0663 21.7412 17.1925C21.6903 18.358 21.4081 19.3211 20.663 20.1583C19.9081 21.0064 18.9348 21.3919 17.7197 21.5743C16.5351 21.7522 15.0183 21.7501 13.1083 21.7501H10.8916C8.98152 21.7501 7.46476 21.7522 6.28022 21.5743C5.06503 21.3919 4.09177 21.0065 3.33686 20.1583C2.59171 19.3211 2.30962 18.3581 2.25874 17.1925C2.20963 16.0663 2.37452 14.6691 2.57807 12.9249C2.9332 9.88208 3.45378 7.58794 3.94136 5.94544C4.32013 4.66951 4.5677 3.76164 5.59468 2.99524C6.63056 2.22232 7.72749 2.25013 9.28901 2.25013H14.7109ZM9.28901 3.75013C7.58724 3.75013 7.05162 3.77922 6.49116 4.19739C5.92205 4.62222 5.77949 5.02594 5.37983 6.3722C4.91791 7.92823 4.41392 10.1374 4.06831 13.0988C3.859 14.8923 3.71512 16.1492 3.75776 17.1271C3.79873 18.0656 4.01009 18.658 4.45796 19.1613C4.8962 19.6534 5.48639 19.9383 6.50288 20.0909C7.55032 20.2482 8.93425 20.2501 10.8916 20.2501H13.1083C15.0656 20.2501 16.4496 20.2482 17.497 20.0909C18.5137 19.9383 19.1046 19.6537 19.5429 19.1613C19.9907 18.6581 20.2012 18.0655 20.2421 17.1271C20.2848 16.1492 20.1409 14.8923 19.9316 13.0988C19.586 10.1374 19.082 7.92823 18.6201 6.3722C18.2204 5.02588 18.0779 4.62224 17.5087 4.19739C16.9482 3.77914 16.4127 3.75013 14.7109 3.75013H9.28901ZM14.9999 6.25013C15.4141 6.25015 15.7499 6.58599 15.7499 7.00013C15.7499 9.07118 14.071 10.7501 12 10.7501C9.92888 10.7501 8.24995 9.07119 8.24995 7.00013C8.25002 6.58597 8.58578 6.25013 8.99995 6.25013C9.4141 6.25015 9.74988 6.58599 9.74995 7.00013C9.74995 8.24277 10.7573 9.25013 12 9.25013C13.2426 9.2501 14.2499 8.24275 14.2499 7.00013C14.25 6.58597 14.5858 6.25013 14.9999 6.25013Z" fill="currentColor" />
</svg>